<svg xmlns="http://www.w3.org/2000/svg" width="205.145" height="58.427"><g data-name="Group 121"><g data-name="Group 109" fill="#fff"><path data-name="Path 89" d="M78.501 36.963a7.259 7.259 0 00-3.448-3.4 7.27 7.27 0 002.839-3.1 13.532 13.532 0 001.131-5.889v-1.6c0-3.556-.87-6.264-2.586-8.05s-4.51-2.695-8.285-2.695H57.087v45.685H68.6c3.648 0 6.445-.959 8.313-2.851s2.815-4.654 2.815-8.214V43.2a14.407 14.407 0 00-1.227-6.237zM65.006 19.509h2.954a2.833 2.833 0 012.377.921 5.326 5.326 0 01.769 3.249v2.5c0 1.655-.329 2.8-.977 3.389a4.036 4.036 0 01-2.81.909h-2.314zm6.8 27.15a4.617 4.617 0 01-.8 3.151 3.213 3.213 0 01-2.405.827h-3.594V37.752h2.7a4.17 4.17 0 013.165 1.01c.624.681.94 2.024.94 3.993z"/><path data-name="Path 90" d="M42.863 11.718c-3.569 0-6.317 1.028-8.165 3.055s-2.772 4.926-2.772 8.65v23.3c0 3.724.932 6.634 2.772 8.649s4.6 3.056 8.165 3.056 6.315-1.028 8.165-3.056 2.771-4.926 2.771-8.649v-6.391h-7.536v6.839a4.27 4.27 0 01-.859 3.078 3.72 3.72 0 01-4.7 0 4.268 4.268 0 01-.859-3.078v-24.2a4.39 4.39 0 01.864-3.114 3.618 3.618 0 014.693 0 4.4 4.4 0 01.864 3.114v9.87h1.375a6.076 6.076 0 006.159-5.774v-3.648c0-3.723-.933-6.632-2.771-8.65s-4.599-3.051-8.166-3.051z"/><path data-name="Path 91" d="M14.224 41.571L9.813 12.243h-.538a10.679 10.679 0 00-6.847 2.5A9.452 9.452 0 000 20.458v37.445h6.506v-26.62L9.584 51.41h8.76l2.8-20.069v26.558h6.978v-45.66h-9.817z"/></g><g data-name="Group 114"><g data-name="Group 111"><g data-name="Group 110"><path data-name="Path 92" d="M82.528 12.362a6.181 6.181 0 116.181-6.181 6.188 6.188 0 01-6.181 6.181zm0-11.483a5.3 5.3 0 105.3 5.3 5.307 5.307 0 00-5.3-5.299z" fill="#fff"/></g></g><g data-name="Group 113"><g data-name="Group 112"><path data-name="Path 93" d="M80.075 2.644a14.506 14.506 0 012.206-.152 3.739 3.739 0 012.369.576 1.859 1.859 0 01.674 1.532 1.944 1.944 0 01-1.293 1.8v.032a1.849 1.849 0 01.978 1.369c.228.826.456 1.782.6 2.064h-1.695a9.153 9.153 0 01-.511-1.706c-.2-.913-.511-1.163-1.184-1.174h-.5v2.88h-1.641zm1.641 3.151h.652c.826 0 1.315-.413 1.315-1.054 0-.674-.457-1.011-1.217-1.021a4.145 4.145 0 00-.75.054z" fill="#fff"/></g></g></g><g data-name="Group 117" fill="#fff"><g data-name="Group 115"><path data-name="Path 94" d="M88.966 12.171h11.082v3.259h-3.749v19.557h-3.585V15.43h-3.748z"/><path data-name="Path 95" d="M104.916 34.987h-3.585V12.171h3.585v9.778h4.074v-9.778h3.65v22.816h-3.65v-9.781h-4.075z"/><path data-name="Path 96" d="M118.834 21.786h4.922v3.26h-4.922v6.681h6.193v3.259h-9.778V12.171h9.778v3.259h-6.193z"/></g><g data-name="Group 116"><path data-name="Path 97" d="M144.455 34.86V12.298h-4.668l-2.145 15.416-2.319-15.416h-.159a5.205 5.205 0 00-3.334 1.214 4.63 4.63 0 00-1.173 2.77V34.86h3V21.685l.254-.019 1.521 9.952h4.157l1.386-9.919.254.018V34.86z"/><path data-name="Path 98" d="M158.472 34.987h-3.617l-.62-4.139h-4.4l-.62 4.139h-3.296l3.65-22.816h5.25zm-8.181-7.236h3.456l-1.728-11.539z"/><path data-name="Path 99" d="M159.23 17.647a6.193 6.193 0 011.32-4.254 6.03 6.03 0 017.92 0 6.2 6.2 0 011.32 4.254v.88h-3.39v-1.108a2.543 2.543 0 00-.473-1.744 1.978 1.978 0 00-2.64 0 2.538 2.538 0 00-.473 1.744 4.038 4.038 0 00.522 2.07 8.6 8.6 0 001.3 1.695q.783.8 1.679 1.6a16.011 16.011 0 011.679 1.744 8.886 8.886 0 011.3 2.151 7.113 7.113 0 01.522 2.836 6.1 6.1 0 01-1.353 4.253 6.115 6.115 0 01-7.985 0 6.093 6.093 0 01-1.353-4.253v-1.564h3.39v1.793a2.358 2.358 0 00.5 1.727 2.116 2.116 0 002.706 0 2.359 2.359 0 00.505-1.727 4.046 4.046 0 00-.521-2.07 8.646 8.646 0 00-1.3-1.695q-.781-.8-1.678-1.6a15.738 15.738 0 01-1.679-1.744 8.86 8.86 0 01-1.3-2.152 7.1 7.1 0 01-.518-2.836z"/><path data-name="Path 100" d="M169.824 12.171h11.082v3.259h-3.749v19.557h-3.585V15.43h-3.748z"/><path data-name="Path 101" d="M185.612 21.786h4.922v3.26h-4.922v6.681h6.193v3.259h-9.778V12.171h9.778v3.259h-6.193z"/><path data-name="Path 102" d="M200.413 34.932a10.639 10.639 0 00-.13-.424 3.2 3.2 0 01-.113-.489 5.988 5.988 0 01-.065-.749q-.017-.457-.016-1.141v-3.585a3.514 3.514 0 00-.554-2.249 2.234 2.234 0 00-1.793-.652h-1.239v9.289h-3.585V12.116h5.41a5.436 5.436 0 014.058 1.3 5.492 5.492 0 011.254 3.944v1.793q0 3.519-2.347 4.628a3.209 3.209 0 011.874 1.809 8.158 8.158 0 01.505 3.048v3.52a14.663 14.663 0 00.065 1.483 4.736 4.736 0 00.325 1.288zm-3.911-19.552v7h1.4a2.255 2.255 0 001.581-.522 2.5 2.5 0 00.571-1.89v-2.249a2.9 2.9 0 00-.44-1.792 1.663 1.663 0 00-1.386-.554z"/></g></g><g data-name="Group 120" fill="#fff"><g data-name="Group 118"><path data-name="Path 103" d="M97.803 44.662a4.65 4.65 0 00-1.032-3.232 4.648 4.648 0 00-6.081 0 4.649 4.649 0 00-1.031 3.232v8.883a4.646 4.646 0 001.031 3.231 4.645 4.645 0 006.081 0 4.646 4.646 0 001.032-3.231v-2.34h-2.678v2.51a1.714 1.714 0 01-.357 1.243 1.515 1.515 0 01-1.928 0 1.711 1.711 0 01-.357-1.243v-9.224a1.763 1.763 0 01.358-1.256 1.475 1.475 0 011.926 0 1.761 1.761 0 01.358 1.256v3.666h.427a2.2 2.2 0 002.25-2.106z"/><path data-name="Path 104" d="M104.263 57.807a6.363 6.363 0 00-.1-.323 2.443 2.443 0 01-.086-.373 4.547 4.547 0 01-.05-.572 23.608 23.608 0 01-.012-.87v-2.736a2.681 2.681 0 00-.423-1.716 1.7 1.7 0 00-1.369-.5h-.945v7.089h-2.735v-17.41h4.128a4.148 4.148 0 013.1.995 4.191 4.191 0 01.957 3.009v1.368q0 2.686-1.791 3.531a2.452 2.452 0 011.43 1.38 6.236 6.236 0 01.385 2.326v2.685a11.187 11.187 0 00.05 1.132 3.62 3.62 0 00.249.983zm-2.984-14.922v5.348h1.07a1.72 1.72 0 001.206-.4 1.91 1.91 0 00.436-1.443v-1.716a2.217 2.217 0 00-.335-1.368 1.27 1.27 0 00-1.057-.423z"/><path data-name="Path 105" d="M117.079 57.807h-2.761l-.473-3.158h-3.357l-.473 3.158h-2.512l2.786-17.41h4zm-6.243-5.521h2.637l-1.319-8.8z"/><path data-name="Path 106" d="M120.219 48.133h3.531v2.487h-3.531v7.188h-2.736v-17.41h7.237v2.487h-4.5z"/><path data-name="Path 107" d="M125.314 40.398h8.456v2.487h-2.86v14.922h-2.735V42.885h-2.86z"/></g><g data-name="Group 119"><path data-name="Path 108" d="M141.736 40.398a4.148 4.148 0 013.1.995 4.191 4.191 0 01.957 3.009v.622a5.057 5.057 0 01-.423 2.213 2.681 2.681 0 01-1.343 1.293 2.738 2.738 0 011.579 1.38 5.4 5.4 0 01.46 2.351v1.418a3.694 3.694 0 01-4.153 4.128h-4.3v-17.41zm-1.393 2.487v4.6h1.069a1.721 1.721 0 001.206-.4 1.911 1.911 0 00.436-1.443v-.97a2.214 2.214 0 00-.336-1.368 1.269 1.269 0 00-1.057-.423zm0 7.088v5.347h1.567a1.4 1.4 0 001.057-.373 1.93 1.93 0 00.361-1.343v-1.517a2.515 2.515 0 00-.41-1.666 1.767 1.767 0 00-1.355-.448z"/><path data-name="Path 109" d="M152.74 57.807a6.363 6.363 0 00-.1-.323 2.381 2.381 0 01-.087-.373 4.647 4.647 0 01-.05-.572q-.012-.348-.012-.87v-2.736a2.678 2.678 0 00-.423-1.716 1.7 1.7 0 00-1.368-.5h-.945v7.089h-2.735v-17.41h4.129a4.147 4.147 0 013.1.995 4.189 4.189 0 01.957 3.009v1.368q0 2.686-1.79 3.531a2.451 2.451 0 011.43 1.38 6.227 6.227 0 01.385 2.326v2.685a11.051 11.051 0 00.05 1.132 3.6 3.6 0 00.248.983zm-2.984-14.922v5.348h1.07a1.722 1.722 0 001.206-.4 1.911 1.911 0 00.435-1.443v-1.716a2.214 2.214 0 00-.335-1.368 1.27 1.27 0 00-1.057-.423z"/><path data-name="Path 110" d="M159.197 47.733h3.756v2.487h-3.756v5.1h4.726v2.487h-7.461v-17.41h7.461v2.487h-4.726z"/><path data-name="Path 111" d="M171.04 48.533l-1 9.277h-3.751L164.35 40.4h2.661l1.467 13.729 1.319-13.729h2.636l1.368 13.828 1.418-13.828h2.388l-1.94 17.41h-3.631z"/><path data-name="Path 112" d="M180.936 47.733h3.756v2.487h-3.756v5.1h4.726v2.487h-7.461v-17.41h7.461v2.487h-4.726z"/><path data-name="Path 113" d="M192.325 57.807a6.363 6.363 0 00-.1-.323 2.442 2.442 0 01-.086-.373 4.484 4.484 0 01-.05-.572q-.013-.348-.012-.87v-2.736a2.681 2.681 0 00-.423-1.716 1.7 1.7 0 00-1.369-.5h-.945v7.089h-2.736v-17.41h4.128a4.148 4.148 0 013.1.995 4.191 4.191 0 01.957 3.009v1.368q0 2.686-1.791 3.531a2.452 2.452 0 011.43 1.38 6.235 6.235 0 01.385 2.326v2.685a11.168 11.168 0 00.05 1.132 3.619 3.619 0 00.248.983zm-2.984-14.922v5.348h1.069a1.721 1.721 0 001.206-.4 1.91 1.91 0 00.436-1.443v-1.716a2.216 2.216 0 00-.335-1.368 1.27 1.27 0 00-1.057-.423z"/><path data-name="Path 114" d="M198.952 52.033l-3.457-11.64h2.86l2.089 7.94 2.089-7.934h2.612l-3.461 11.634v5.77h-2.736z"/></g></g></g></svg>